<svg width="1547" height="481" viewBox="0 0 1547 481" fill="none" xmlns="http://www.w3.org/2000/svg">
<path d="M419.479 25.8058C463.331 26.6982 509.345 25.8439 553.442 25.959C555.686 35.4202 557.7 46.0693 559.395 55.6544C570.837 120.369 586.684 186.031 595.391 251.035C596.844 234.959 602.211 209.122 605.257 192.614L625.61 84.5956C629.054 66.4786 634.049 43.8067 636.441 25.8539L771.03 25.9327C770.078 64.468 770.909 106.858 770.909 145.662L770.992 365.42L691.954 365.454L694.274 137.24C694.767 126.339 695.085 112.184 694.684 101.353C680.981 169.136 664.653 236.742 650.522 304.471C646.302 324.695 641.911 345.388 637.066 365.44L553.331 365.446C551.399 358.905 549.539 348.838 548.01 341.877L538.035 296.433L507.281 156.292C505.474 148.052 498.376 110.474 495.654 105.538C494.973 106.762 497.92 343.507 498.555 365.443L419.395 365.463C418.788 348.273 419.29 327.814 419.287 310.419L419.271 205.386L419.261 90.2347C419.261 69.2835 418.841 46.6589 419.479 25.8058Z" fill="#F3F3F3"/>
<path d="M815.257 25.8159C858.464 26.804 905.592 25.9299 949.086 25.925C955.771 52.2096 960.296 82.5017 965.576 109.493C974.686 156.1 984.135 203.39 991.206 250.315C993.268 230.268 999.235 204.193 1002.66 183.907C1011.49 131.561 1023.85 78.0405 1032.31 25.8546C1076.95 26.353 1122.33 25.8973 1167.04 25.9554C1166.01 36.8515 1166.57 56.0588 1166.57 67.3217L1166.58 141.896C1166.57 215.884 1165.79 291.607 1166.79 365.442L1087.72 365.463L1090.07 137.461C1090.76 127.381 1090.51 111.893 1090.77 101.237C1070.22 188.227 1052.77 277.993 1032.83 365.401L948.837 365.464L910.653 191.051L898.499 135.53C896.248 125.174 893.74 111.939 890.749 101.949C892.879 189.551 892.358 277.791 894.133 365.416L815.113 365.461C813.905 305.865 815.061 242.139 815.053 182.165L815.045 82.2986C815.045 63.9311 814.683 44.0961 815.257 25.8159Z" fill="#F3F3F3"/>
<path d="M1211.03 25.8064C1238.55 26.4322 1267.82 25.8086 1295.52 25.9792C1294.67 78.6424 1295.45 133.872 1295.45 186.793L1295.44 247.384C1295.44 259.175 1295.09 271.298 1295.85 283.045C1296.89 299.264 1299.02 309.232 1317.7 309.643C1337.38 310.075 1341.92 303.405 1343.27 284.676C1344.11 273.15 1343.92 261.987 1343.93 250.451V199.274L1344.01 25.8054C1371.39 26.4521 1400.93 25.8416 1428.5 25.9724C1428.12 46.4575 1428.44 68.149 1428.44 88.7245L1428.42 235.935C1428.43 260.669 1429.73 290.112 1426.68 314.333C1425.2 326.114 1418.58 340.886 1410.07 349.318C1389.26 369.937 1347.13 372.22 1319.15 372.283C1291 371.573 1250.82 370.363 1229.28 349.476C1208.77 329.582 1210.86 296.605 1210.88 270.555L1210.95 214.947L1211.03 25.8064Z" fill="#F3F3F3"/>
<path d="M111.677 21.6098L120.936 21.651L121.615 121.914C123.358 123.489 125.929 125.968 126.255 128.101C132.104 166.461 117.754 209.131 146.093 241.791C160.084 257.916 177.489 262.655 198.619 264.076C198.115 298.552 198.66 334.263 198.9 368.805C150.262 367.501 106.457 349.836 72.4884 314.463C45.7989 286.819 29.2663 250.951 25.5866 212.708C23.1804 187.855 25.3062 159.751 24.5435 134.578C24.3802 129.184 26.4083 125.641 30.1949 122.018C30.2135 106.258 30.1417 90.4982 29.9795 74.739C29.6522 57.8437 28.9039 38.8943 29.8121 22.1033L39.4809 22.0892C39.2421 54.0211 38.9748 90.28 39.9935 122.147C42.4681 124.442 43.5612 127.42 45.9083 127.647C47.4616 125.694 48.9633 124.019 50.6257 122.172C50.2155 91.0026 49.2807 52.25 50.272 21.8666L59.7262 21.9602L60.0842 121.94C62.4505 124.196 63.5114 126.733 66.1125 127.293C67.7232 125.501 69.3482 123.722 70.9872 121.957C71.2366 88.874 70.0837 55.2606 70.3902 21.8586L80.0626 21.9246C80.0195 54.1213 79.8533 90.0021 80.7469 122.117C82.9504 124.302 83.9308 126.649 86.4689 127.298C88.2523 125.539 89.6973 123.747 91.2896 121.83C90.3998 89.7839 90.4995 53.6968 90.7141 21.6403L99.7188 21.5749C100.914 31.7553 100.5 48.313 100.513 58.9953L100.548 121.677C102.092 122.938 104.264 125.393 105.788 126.926C108.236 126.617 108.946 124.251 112.025 121.67C111.179 89.3678 111.66 54.0439 111.677 21.6098Z" fill="#F3F3F3"/>
<path d="M196.444 21.3352L196.646 21.3322C244.361 20.312 290.503 38.4062 324.797 71.5859C353.574 99.6471 371.524 136.958 375.485 176.949C377.372 196.422 375.782 218.147 376.812 237.934C377.22 245.785 376.352 252.345 370.812 258.03C370.542 294.164 370.605 330.298 371.003 366.431L361.417 366.604C360.433 331.576 361.038 293.824 361.005 258.616C359.162 256.853 356.641 253.846 354.87 251.847L354.816 251.838C352.951 254.748 352.257 255.792 349.848 258.26C349.815 278.889 349.92 299.519 350.163 320.147C350.259 326.738 351.043 362.045 350.04 366.1C347.792 367.171 343.411 366.922 340.748 366.934L340.06 258.333C338.177 256.51 336.33 254.062 334.67 251.992C332.927 254.654 331.598 256.004 329.438 258.307L329.55 325.071C329.399 338.327 329.968 353.44 330.044 366.911L320.277 366.874L319.563 259.216C317.655 256.977 315.921 254.335 314.237 251.906C312.833 253.929 310.564 256.462 308.934 258.397L309.746 366.976L300.051 366.763C298.765 332.068 299.332 293.677 299.101 258.673C296.163 256.111 295.534 255.54 293.808 252.049C291.561 255.043 290.601 256.087 287.858 258.633L288.547 367.002L278.784 367.021C278.224 330.985 277.971 294.944 278.027 258.903C276.156 257.012 274.425 254.386 272.861 252.194C269.779 215.393 280.93 172.93 254.13 145.59C237.579 128.704 220.015 122.361 197.102 121.516C197.134 88.0766 196.302 54.8678 196.444 21.3352Z" fill="#F3F3F3"/>
<path d="M194.38 143.993C221.311 140.947 245.641 160.23 248.815 187.138C251.989 214.044 232.813 238.456 205.911 241.755C178.831 245.075 154.213 225.751 151.018 198.665C147.823 171.58 167.269 147.061 194.38 143.993Z" fill="#F3F3F3"/>
<path d="M1485.9 22.2211C1502.33 18.5845 1518.61 28.884 1522.36 45.2817C1526.11 61.6792 1515.92 78.027 1499.53 81.884C1483.01 85.7781 1466.45 75.4697 1462.67 58.9154C1458.89 42.3611 1469.31 25.8924 1485.9 22.2211ZM1495.82 80.3308C1511.35 78.5064 1522.5 64.4782 1520.76 48.936C1519.01 33.3937 1505.05 22.1759 1489.49 23.8312C1473.81 25.4994 1462.48 39.5983 1464.23 55.2603C1465.99 70.9224 1480.16 82.1687 1495.82 80.3308Z" fill="#F3F3F3" fill-opacity="0.960784"/>
<path d="M1481.49 30.9463C1492.44 30.8122 1508.52 29.5952 1504.68 46.4715C1503.97 49.5688 1499.25 52.1332 1496.68 53.6313C1498.54 58.1761 1507.55 66.3762 1508.54 71.0823L1507.47 71.724C1504.22 71.5939 1503.66 72.0539 1501.08 70.496C1496.63 64.6726 1492.29 58.7654 1488.07 52.7775C1488.07 55.8496 1488.55 69.9301 1487.4 71.3882C1485.18 71.3155 1483.4 71.7044 1482.04 70.4645C1480.9 65.5293 1481.47 37.3868 1481.49 30.9463ZM1497.02 46.9517C1497.85 44.307 1498.23 43.4664 1497.68 40.6884C1494.99 36.8109 1493.25 37.1476 1488.72 36.8657C1488.62 39.7719 1488.08 45.034 1489.35 47.3677C1491.92 48.7332 1493.32 48.0684 1496.41 47.1395L1497.02 46.9517Z" fill="#F3F3F3"/>
<path d="M549.348 401.872C553.519 401.655 557.696 401.565 561.872 401.6C592.648 402.039 599.638 434.128 580.666 452.061C569.818 459.359 557.088 459.146 544.668 457.445C544.603 443.069 543.695 417.132 544.848 403.653C546.12 402.143 547.093 402.361 549.348 401.872ZM552.146 452.22C561.344 452.347 569.374 452.714 576.743 446.029C584.487 435.956 586.406 420.688 575.27 412.117C568.085 406.587 560.522 407.345 552.064 407.95L552.146 452.22Z" fill="#F3F3F3"/>
<path d="M429.161 401.875L438.776 401.883C439.151 411.527 442.971 450.758 441.153 457.279L439.24 458.102C432.155 456.589 434.134 449.13 433.85 442.849L432.522 414.303L432.525 411.725C431.305 412.638 420.749 446.007 418.781 449.666C415.663 455.46 418.627 457.326 410.733 456.98C407.35 453.091 396.729 417.295 394.619 409.824C394.638 421.074 393.659 445.462 392.395 456.69C390.522 457.821 388.578 457.359 386.101 457.319L385.465 456.554C384.954 448.58 386.778 433.71 387.215 425.251C387.499 419.757 388.098 406.815 389.028 401.996L398.276 401.874C403.351 413.933 409.888 434.444 413.665 446.977C416.385 435.026 424.628 414.171 429.161 401.875Z" fill="#F3F3F3"/>
<path d="M89.1927 401.875L98.8577 401.906C99.1455 410.575 102.921 452.169 101.322 457.317L99.3185 458.084C92.2867 456.726 94.2061 449.277 93.9085 443.2C93.3971 433.34 92.9454 423.477 92.5541 413.612L92.5254 412.294C90.5516 414.121 79.323 450.72 75.2574 457.461C73.0216 457.559 72.5693 457.58 70.4407 456.945C66.7714 450.677 57.0627 418.245 54.7444 409.897C54.5113 424.373 53.7748 441.88 52.2848 456.388C52.2386 456.838 51.6929 457.029 51.1774 457.368C48.8078 457.358 47.0841 457.809 45.5302 456.56C44.9882 448.352 46.8104 433.61 47.2782 424.922C47.5792 419.33 48.1611 406.912 49.0604 402.003L58.3718 401.865C63.3947 414.183 70.1072 434.674 73.4982 447.202C77.415 432.812 83.952 416.131 89.1927 401.875Z" fill="#F3F3F3"/>
<path d="M1133.69 401.97C1147 401.262 1167.25 399.392 1166.01 418.931C1165.67 424.41 1161.47 427.11 1157.61 430.625C1161.9 438.089 1165.56 445.868 1167.34 454.509C1167.79 456.698 1166.98 457.285 1165.82 458.723C1161.02 459.377 1159.1 455.306 1158.15 451.381C1155.05 437.128 1154.68 433.289 1138.9 433.734C1138.96 439.488 1139.4 451.528 1138.87 456.786C1137.19 458.375 1133.86 457.844 1131.89 457.041C1131.16 452.37 1130.82 406.846 1132.04 402.768L1133.69 401.97ZM1155.65 424.762C1165.64 409.542 1150.25 407.06 1138.88 407.81L1139.01 428.105C1145.77 428.048 1149.81 428.682 1155.65 424.762Z" fill="#F3F3F3"/>
<path d="M868.495 401.764C871.147 401.762 874.387 402.047 877.092 402.219C886.594 417.328 896.067 431.788 904.315 447.632C903.65 441.569 902.268 404.85 904.293 402.127C907.004 401.857 907.593 401.813 910.184 402.605C911.106 404.364 910.728 450.073 910.827 456.731L910.268 457.513C908.878 457.927 905.969 458.28 905.108 457.658C896.973 451.79 879.622 420.085 875.4 412.189C875.596 422.798 875.437 433.421 875.702 444.039C875.815 448.713 876.857 455.372 872.71 458.2C870.127 457.883 870.958 458.299 869.047 456.704C867.597 445.992 868.45 414.408 868.495 401.764Z" fill="#F3F3F3"/>
<path d="M685.391 401.861C688.361 401.768 689.833 401.788 692.812 402.09C695.537 404.066 711.389 450.59 712.668 457.231C710.55 458.345 710.146 458.586 707.791 458.441C701.84 455.962 702.912 445.719 698.718 440.937C698.042 440.166 696.433 440.364 695.13 440.286L679.559 440.3C678.131 445.327 676.397 454.774 672.261 457.452C669.845 457.723 669.218 457.862 666.926 457.15C666.947 452.789 682.776 408.196 685.391 401.861ZM681.217 434.403L688.71 434.428C691.041 434.408 695.527 434.739 697.22 433.753C696.149 430.364 690.251 411.413 689.275 409.82C686.866 418.103 684.178 426.301 681.217 434.403Z" fill="#F3F3F3"/>
<path d="M138.423 401.803C140.664 401.81 142.738 401.961 144.966 402.115C147.962 406.48 144.533 433.285 146.965 442.479C149.847 453.381 161.853 455.992 168.809 447.973C175.97 439.716 168.964 411.146 173.607 402.518C175.982 401.242 176.06 401.727 179.043 402.026C180.219 403.309 179.798 403.784 179.852 406.056C179.926 416.532 182.519 445.581 173.362 453.395C160.902 464.028 140.479 458.999 138.776 440.683C137.675 428.841 138.222 414.619 138.423 401.803Z" fill="#F3F3F3"/>
<path d="M789.469 401.805C791.908 401.803 793.653 401.942 796.048 402.17C800.474 407.411 791.448 446.488 803.39 450.761C833.748 461.623 818.603 414.195 824.707 402.528C827.086 401.197 826.655 401.648 829.805 402.089C831.392 403.631 830.886 404.08 830.923 406.811C830.863 420.536 833.96 442.971 824.284 453.554C818.059 460.366 801.381 460.484 795.474 453.382C786.137 442.164 789.28 416.409 789.469 401.805Z" fill="#F3F3F3"/>
<path d="M478.389 401.824C484.101 401.973 505.082 401.063 508.785 402.676C509.312 405.404 509.471 404.415 508.394 406.845C504.372 409.777 491.878 408.479 485.863 408.486L486.037 425.362C491.635 425.536 502.369 425.124 506.986 425.71C508.416 427.519 508.69 427.221 508.61 429.01C504.936 433.515 491.046 430.576 486.25 432.59L486.024 434.75L486.028 451.494C492.212 451.628 503.628 450.263 508.459 452.447C510.197 454.442 509.772 453.541 509.902 456.403C507.789 458.663 483.333 457.715 478.386 457.697C477.941 439.97 478.15 419.583 478.389 401.824Z" fill="#F3F3F3"/>
<path d="M1065.19 401.828C1070.17 401.95 1093.47 400.939 1095.88 402.943C1096.11 405.459 1096.29 404.521 1095.23 406.782C1091.25 409.842 1078.59 408.492 1072.69 408.457L1072.82 425.505C1078.78 425.548 1090.08 423.799 1093.97 427.11C1094.96 429.649 1094.82 428.629 1094.37 431.326C1090.17 432.874 1077.99 430.582 1073.03 432.323L1072.81 433.995L1072.82 451.506C1077.63 451.445 1093.6 450.748 1096.81 452.59C1096.94 454.356 1097.29 455.871 1096.3 457.298C1090.34 458.222 1072.34 457.717 1065.16 457.686L1065.19 401.828Z" fill="#F3F3F3"/>
<path d="M987.421 401.811C990.397 401.743 991.629 401.723 994.642 402.195C998.049 404.43 1008.44 442.831 1010.35 449.63C1013.8 436.978 1020.42 415.034 1026.45 402.78C1027.09 401.463 1029.15 401.461 1030.47 401.341C1032.84 402.407 1032.38 401.782 1033.41 403.805L1032.18 407.187C1028.23 418.419 1018.86 447.398 1014.13 456.817C1012.14 458.121 1008.47 457.777 1005.94 457.783C999.681 441.498 993.23 418.979 987.421 401.811Z" fill="#F3F3F3"/>
<path d="M1214.61 401.123C1220.29 400.54 1225.08 401.869 1230.48 403.241C1230.11 404.72 1228.91 407.837 1228.35 409.41C1221.86 407.387 1211.88 404.717 1207.38 412.664C1203.45 419.585 1217.73 425.34 1222.35 428.136C1229.41 432.413 1230.96 433.844 1233.05 442.089C1230.59 453.807 1226.39 457.225 1214.52 458.737C1209.27 458.518 1200.87 458.743 1199.18 453.176C1199.31 452.556 1200.09 449.037 1200.85 449.385C1209.27 453.259 1224.63 455.149 1225.31 442.335C1225.57 437.334 1212.45 431.69 1207.8 428.654C1193.12 419.086 1198.58 404.619 1214.61 401.123Z" fill="#F3F3F3"/>
<path d="M1376.23 401.839C1379.25 401.764 1382.09 401.964 1385.1 402.136C1389.74 410.621 1394.07 419.646 1398.37 428.331C1402.69 419.424 1407.21 410.616 1411.93 401.915L1420.57 401.97C1416.79 408.118 1413.04 414.717 1409.36 420.962L1401.99 433.66C1401.81 440.051 1404.13 453.549 1399.43 457.488C1398.36 457.617 1395.5 457.894 1395.13 457.311C1393.1 454.204 1394.91 438.136 1393.92 435.534C1389.51 423.87 1382.32 412.599 1376.23 401.839Z" fill="#F3F3F3"/>
<path d="M268.303 401.838C273.83 401.933 307.141 400.764 309.381 403.059C309.595 404.733 310.012 406.373 309.318 407.862C305.574 408.817 296.911 408.485 292.694 408.466C293.414 417.576 292.99 431.167 292.973 440.602C292.973 446.11 294.815 453.794 290.77 457.343C288.68 457.74 288.083 457.938 286.066 457.358C284.381 452.838 285.285 415.663 285.353 408.398C280.159 408.263 273.992 409.532 269.598 407.898C267.664 405.637 268.287 405.37 268.303 401.838Z" fill="#F3F3F3"/>
<path d="M1306.55 401.843C1312.89 401.947 1344.72 400.767 1347.49 402.781C1348.04 405.075 1348.25 405.654 1347.71 407.914C1344.12 408.707 1335.13 408.476 1330.99 408.479L1331.03 439.847C1330.89 445.69 1333.29 454.055 1328.37 457.512C1325.93 457.726 1325.78 458.139 1323.93 457.189C1322.68 449.131 1323.36 418.347 1323.39 408.411C1318.27 408.253 1312.22 409.508 1307.89 407.885C1305.95 405.643 1306.57 405.358 1306.55 401.843Z" fill="#F3F3F3"/>
<path d="M217.335 401.807C219.452 401.834 223.152 401.569 224.749 402.658C225.898 411.912 225.133 440.814 225.106 451.493C228.152 451.482 247.284 451.057 248.862 452.167L249.092 457.734L217.295 457.685C216.79 440.076 217.16 419.483 217.335 401.807Z" fill="#F3F3F3"/>
<path d="M948.217 401.788C950.748 401.758 953.286 401.471 955.492 402.676C957.335 410.179 955.862 447.302 955.983 457.695C953.444 457.744 950.257 458.062 948.421 456.588C947.281 447.788 948.074 412.083 948.217 401.788Z" fill="#F3F3F3"/>
<path d="M341.342 401.808C343.439 401.833 347.064 401.569 348.657 402.641C349.882 414.003 349.012 444.939 349.003 457.721C346.068 457.781 345.084 457.808 342.139 457.224C340.432 454.623 341.308 408.555 341.342 401.808Z" fill="#F3F3F3"/>
<path d="M625.139 401.781C627.988 401.736 629.237 401.649 632.071 402.401C633.039 404.115 632.696 451.182 632.88 457.408C630.634 457.941 627.241 458 625.341 456.671C624.225 448.714 625.032 411.203 625.139 401.781Z" fill="#F3F3F3"/>
<path d="M1267.48 401.822C1270.47 401.774 1271.48 401.772 1274.49 402.329C1276.24 408.089 1275.11 449.132 1275.09 457.621C1272.97 457.655 1269.47 457.988 1267.75 457.049C1266.55 443.81 1267.45 416.11 1267.48 401.822Z" fill="#F3F3F3"/>
</svg>
